<?xml version="1.0" standalone="no"?>
<!DOCTYPE svg PUBLIC "-//W3C//DTD SVG 20010904//EN"
 "http://www.w3.org/TR/2001/REC-SVG-20010904/DTD/svg10.dtd">
<svg version="1.0" xmlns="http://www.w3.org/2000/svg"
 width="600.000000pt" height="600.000000pt" viewBox="0 0 600.000000 600.000000"
 preserveAspectRatio="xMidYMid meet">
<metadata>
Created by potrace 1.11, written by Peter Selinger 2001-2013
</metadata>
<g transform="translate(0.000000,600.000000) scale(0.100000,-0.100000)"
fill="#000000" stroke="none">
<path d="M3256 5933 c-77 -155 -158 -413 -205 -656 -56 -288 -77 -476 -92
-822 l-12 -270 -41 -80 c-43 -85 -188 -307 -270 -415 -250 -328 -332 -441
-357 -494 -47 -99 -36 -187 33 -262 37 -41 50 -47 201 -95 174 -55 292 -106
321 -138 32 -35 15 -79 -53 -138 -66 -59 -94 -109 -93 -169 0 -49 11 -72 58
-124 30 -33 32 -39 18 -51 -48 -39 -59 -142 -23 -216 26 -53 96 -117 155 -139
30 -12 46 -24 50 -40 3 -13 -11 -86 -32 -166 -35 -131 -38 -154 -39 -278 0
-87 5 -153 14 -185 41 -145 119 -249 229 -304 121 -61 209 -75 627 -96 165 -8
326 -18 358 -21 l57 -6 0 -192 c0 -106 -3 -195 -6 -198 -3 -3 -170 36 -372 87
-202 51 -368 92 -370 90 -6 -6 -35 -116 -31 -119 2 -1 178 -47 391 -101 l386
-98 44 22 c29 14 52 34 66 60 20 36 22 52 22 225 0 132 3 186 11 186 22 0 79
-41 117 -86 26 -29 47 -68 63 -116 21 -66 23 -90 22 -246 -1 -96 -4 -196 -8
-223 l-7 -49 65 0 65 0 6 68 c28 330 7 487 -82 620 -42 64 -132 134 -202 157
l-50 17 0 159 0 160 -62 -3 -63 -3 -3 -144 -3 -144 -57 7 c-31 3 -191 13 -354
21 -388 19 -472 31 -569 81 -65 33 -120 99 -149 180 -22 60 -25 85 -24 194 0
112 4 140 37 263 42 156 44 180 21 238 -16 39 -81 99 -108 99 -24 0 -84 51
-100 84 -32 69 2 93 174 121 113 19 146 29 120 39 -8 3 -66 24 -127 46 -222
79 -255 126 -143 206 55 40 64 53 86 122 50 167 -46 252 -421 367 -132 41
-165 64 -165 117 0 16 7 45 15 63 9 17 108 155 221 304 234 312 329 453 407
601 l55 105 6 215 c20 663 129 1199 316 1558 l37 72 -73 0 -74 0 -34 -67z"/>
<path d="M1949 5853 c-58 -49 -59 -56 -59 -468 l0 -375 65 0 65 0 0 370 c0
350 1 370 18 370 14 0 561 -135 634 -156 14 -4 21 7 34 51 9 32 12 61 8 65
-16 14 -648 170 -691 170 -30 0 -50 -7 -74 -27z"/>
<path d="M3407 5532 c-8 -13 -29 -113 -26 -116 3 -3 546 -141 731 -187 l48
-11 2 -412 3 -411 60 0 60 0 3 418 c2 459 2 464 -57 506 -23 17 -287 88 -696
187 -55 14 -105 27 -112 29 -7 2 -14 1 -16 -3z"/>
<path d="M1897 1804 c-4 -4 -7 -210 -7 -458 0 -420 1 -454 19 -486 10 -19 29
-42 42 -52 13 -9 184 -57 379 -107 l355 -89 12 29 c7 16 14 43 15 61 3 31 1
33 -42 44 -156 40 -645 164 -647 164 -1 0 -4 201 -5 448 l-3 447 -55 3 c-31 2
-59 0 -63 -4z"/>
</g>
</svg>
