<?xml version="1.0" encoding="UTF-8"?>
<svg width="342px" height="351px" viewBox="0 0 342 351" version="1.1" xmlns="http://www.w3.org/2000/svg" xmlns:xlink="http://www.w3.org/1999/xlink">
    <!-- Generator: Sketch 51.2 (57519) - http://www.bohemiancoding.com/sketch -->
    <title>Artboard</title>
    <desc>Created with Sketch.</desc>
    <defs>
        <linearGradient x1="68.1873189%" y1="90.7968926%" x2="51.0914132%" y2="49.3147601%" id="linearGradient-1">
            <stop stop-color="#FFFFFF" offset="0%"></stop>
            <stop stop-color="#CCCCCB" offset="100%"></stop>
        </linearGradient>
        <linearGradient x1="84.9307287%" y1="96.9539627%" x2="26.6202037%" y2="32.409482%" id="linearGradient-2">
            <stop stop-color="#FFFFFF" offset="0%"></stop>
            <stop stop-color="#CCCCCB" offset="100%"></stop>
        </linearGradient>
    </defs>
    <g id="Artboard" stroke="none" stroke-width="1" fill="none" fill-rule="evenodd">
        <g id="Group-2">
            <circle id="Oval-4-Copy" fill="#372469" cx="171" cy="171" r="171"></circle>
            <g id="illustrations-app5-04-copy" transform="translate(34.000000, 55.000000)">
                <g id="Layer_5" transform="translate(0.000000, 223.000000)"></g>
                <g id="Layer_2" transform="translate(30.027273, 0.127273)" fill-rule="nonzero">
                    <path d="M50.1355455,244.136364 C50.3656107,244.858111 50.4554381,245.617217 50.4001818,246.372727 C49.9565645,246.278537 49.5069848,246.215023 49.0546364,246.182636 C49.3619812,245.47386 49.7233485,244.789754 50.1355455,244.136364 Z" id="Shape" fill="#1E1E1E"></path>
                    <polygon id="Shape" fill="#AD90C3" opacity="0.8" points="182.218909 57.1316364 30.8133636 57.1316364 21.1634545 84.8364545 191.868818 84.8364545"></polygon>
                    <polygon id="Shape" fill="#AD90C3" opacity="0.5" points="178.327636 139.422364 35.8526364 139.422364 14.4394545 232.861364 199.740818 232.861364"></polygon>
                    <polygon id="Shape" fill="#AD90C3" opacity="0.5" points="187.541455 0.0260909091 25.8337273 0.0260909091 35.5246364 139.057091 177.850545 139.057091"></polygon>
                    <polygon id="Shape" fill="#AD90C3" opacity="0.3" points="171.648364 61.2800909 40.9925455 61.0303636 47.765 148.188909 164.924364 147.503091"></polygon>
                    <polyline id="Shape" fill="#AD90C3" opacity="0.73" points="32.2148182 180.854727 46.3337273 129.724 40.9925455 61.0303636 27.4923636 92.2462727 30.5189091 179.401091"></polyline>
                    <polyline id="Shape" fill="#AD90C3" opacity="0.73" points="179.721636 180.851 166.322091 129.724 171.648364 61.2800909 185.021818 93.6999091 179.721636 180.851"></polyline>
                    <g id="Group" opacity="0.44" transform="translate(32.054545, 129.709091)" fill="#372469">
                        <polygon id="Shape" points="14.2791818 0.0149090909 0.160272727 51.1456364 44.5781818 51.1456364 48.7564545 0.0149090909"></polygon>
                    </g>
                    <g id="Group" opacity="0.44" transform="translate(133.063636, 129.709091)" fill="#372469">
                        <polygon id="Shape" points="33.2584545 0.0149090909 0.305636364 0.0149090909 4.48390909 51.1456364 46.658 51.1456364"></polygon>
                    </g>
                    <path d="M21.1634545,84.8364545 L30.9736364,222.372818 L182.062364,222.372818 L191.872545,84.8364545 L21.1634545,84.8364545 Z M179.721636,180.854727 L137.536364,180.854727 L137.562455,184.209273 L76.6439091,184.209273 L76.6439091,180.854727 L34.4921818,180.854727 L29.1882727,93.6999091 L185.021818,93.6999091 L179.721636,180.854727 Z" id="Shape" fill="#614199" opacity="0.44"></path>
                    <polygon id="Shape" fill="#ECE5F2" opacity="0.69" points="188.518 0.0260909091 25.6622727 0.0260909091 0.115545455 57.1316364 214.064727 57.1316364"></polygon>
                    <path d="M0.115545455,57.1316364 L14.2195455,232.496091 L199.957,232.496091 L214.061,57.1316364 L0.115545455,57.1316364 Z M177.533727,222.343 L34.4064545,222.343 L27.511,92.3767273 L184.429182,92.3767273 L177.533727,222.343 Z" id="Shape" fill="#ECE5F2" opacity="0.69"></path>
                    <g id="Group" opacity="0.44" transform="translate(76.409091, 133.063636)" fill="#261D51">
                        <polygon id="Shape" points="56.9601818 0.0149090909 4.40190909 0.0149090909 0.234818182 51.1344545 61.1645455 51.1344545"></polygon>
                    </g>
                    <polygon id="Shape" fill="#282828" points="185.659182 1.91954545 28.905 1.91954545 6.17981818 53.8516364 208.384364 53.8516364"></polygon>
                    <path d="M97.3377273,19.0314545 L96.7003636,22.878 L103.506364,22.878 L103.771,19.0314545 L97.3377273,19.0314545 Z M101.672545,21.7337273 L98.8025455,21.7337273 L99.0299091,20.0862727 L101.832818,20.0862727 L101.672545,21.7337273 Z" id="Shape" fill="#FFFFFF"></path>
                    <path d="M95.6492727,29.2143636 L94.7957273,34.3729091 L102.712455,34.3729091 L103.085182,29.2143636 L95.6492727,29.2143636 Z M100.599091,32.8298182 L97.2818182,32.8298182 L97.5874545,30.6195455 L100.826455,30.6195455 L100.599091,32.8298182 Z" id="Shape" fill="#FFFFFF"></path>
                    <path d="M112.962455,19.0314545 L113.227091,22.878 L120.018182,22.878 L119.380818,19.0314545 L112.962455,19.0314545 Z M117.930909,21.7337273 L115.060909,21.7337273 L114.900636,20.0862727 L117.703545,20.0862727 L117.930909,21.7337273 Z" id="Shape" fill="#FFFFFF"></path>
                    <polygon id="Shape" fill="#FFFFFF" points="118.255182 24.0595455 118.777 27.8576364 113.573727 27.8576364 113.666909 29.2143636 121.084182 29.2143636 120.230636 24.0595455"></polygon>
                    <polygon id="Shape" fill="#FFFFFF" points="113.763818 30.6195455 114.021 34.3729091 116.283455 34.3729091 116.063545 32.0806364 119.362182 32.0806364 119.675273 34.3729091 121.937727 34.3729091 121.319 30.6195455"></polygon>
                    <polygon id="Shape" fill="#FFFFFF" points="105.608545 19.0314545 105.567545 20.0862727 109.302273 20.0862727 109.339545 22.878 111.285182 22.878 111.124909 19.0314545"></polygon>
                    <polygon id="Shape" fill="#FFFFFF" points="109.354455 24.0595455 109.391727 26.5493636 105.299182 26.5493636 105.131455 30.6195455 109.447636 30.6195455 109.499818 34.3729091 111.762273 34.3729091 111.546091 29.2143636 107.308182 29.2143636 107.326818 27.8576364 111.490182 27.8576364 111.382091 25.2820909 113.394818 25.2820909 113.480545 26.5493636 115.526818 26.5493636 115.288273 24.0595455"></polygon>
                    <polygon id="Shape" fill="#FFFFFF" points="105.068091 32.0806364 107.267182 32.0806364 107.237364 34.3729091 104.974909 34.3729091"></polygon>
                    <polygon id="Shape" fill="#FFFFFF" points="100.185364 26.5493636 103.252909 26.5493636 103.163455 27.8576364 100.04 27.8576364"></polygon>
                    <polygon id="Shape" fill="#FFFFFF" points="105.522818 21.1783636 105.403545 24.0595455 96.5028182 24.0595455 95.8766364 27.8576364 97.9564545 27.8576364 98.3142727 25.2820909 107.364091 25.2820909 107.42 21.1783636"></polygon>
                </g>
                <g id="Layer_8" transform="translate(109.418182, 139.527273)" fill-rule="nonzero">
                    <path d="M68.5221818,154.991182 L25.4870909,154.991182 C22.099,134.945909 19.4899091,108.985455 15.0134545,107.386455 C5.09145455,103.841818 6.89918182,97.4048182 6.89918182,97.4048182 L6.06427273,95.0678182 C5.22936364,92.7308182 6.232,86.2155455 6.232,86.2155455 C6.232,86.2155455 4.74109091,85.3806364 1.05481818,80.7066364 C-2.63145455,76.0326364 7.08181818,64.0084545 7.08181818,64.0084545 L19.2737273,63.1735455 C19.2737273,63.1735455 9.41136364,67.9332727 4.89018182,66.5914545 C2.37427273,65.846 1.51327273,63.2145455 4.91254545,56.8297273 C14.4133636,38.9611818 27.9545455,29.4454545 31.447,30.2766364 C34.9394545,31.1078182 60.1097273,69.9273636 62.9499091,74.9405455 C65.7900909,79.9537273 61.6751818,129.556273 61.6751818,129.556273 L68.5259091,156.019909" id="Shape" fill="url(#linearGradient-1)"></path>
                    <path d="M11.07,67.3443636 L17.3355455,67.3443636 L17.3355455,0.253454545 L11.07,0.253454545 C8.59978094,0.253454545 6.59727273,2.25596276 6.59727273,4.72618182 L6.59727273,62.8716364 C6.59727273,65.3418554 8.59978094,67.3443636 11.07,67.3443636 Z" id="Shape" fill="#A5A4A4"></path>
                    <path d="M17.3355455,67.3443636 L43.87,67.3443636 C46.3402191,67.3443636 48.3427273,65.3418554 48.3427273,62.8716364 L48.3427273,4.72618182 C48.3427273,2.25596276 46.3402191,0.253454545 43.87,0.253454545 L17.3355455,0.253454545 L17.3355455,67.3443636 Z" id="Shape" fill="#40403F"></path>
                    <rect id="Rectangle-path" fill="#A5A4A4" transform="translate(34.607727, 12.072636) rotate(90.000000) translate(-34.607727, -12.072636) " x="28.3459091" y="3.977" width="12.5236364" height="16.1912727" rx="4.65"></rect>
                    <path d="M38.2790909,9.60890909 C35.7482727,9.81390909 35.1705455,10.2462727 34.4623636,10.8314545 C32.9714545,10.947 33.1130909,9.49336364 31.9129091,7.69309091 C30.7574545,5.96363636 26.8997273,6.89545455 26.5903636,6.97372727 C26.5903636,6.99981818 26.5903636,7.02963636 26.568,7.05572727 L26.5158182,16.6981818 C26.516773,16.7906898 26.5255007,16.8829539 26.5419091,16.974 C26.9146364,17.0634545 30.7649091,17.9840909 31.9129091,16.2658182 C33.1168182,14.4655455 32.9565455,13.0156364 34.4623636,13.1311818 C35.1742727,13.7163636 35.752,14.1487273 38.2790909,14.3537273 C41.3839091,14.4021818 41.3913636,12.1173636 41.3913636,11.9869091 C41.3913636,11.8564545 41.3727273,9.56045455 38.2790909,9.60890909 Z" id="Shape" fill="#CCCCCB"></path>
                    <path d="M34.5518182,27.6489091 L34.5518182,56.8744545" id="Shape" stroke="#A5A4A4" stroke-width="2" fill="#FFFFFF" opacity="0.27"></path>
                    <path d="M31.2792727,27.6489091 L31.2792727,45.8081818" id="Shape" stroke="#A5A4A4" stroke-width="2" fill="#FFFFFF" opacity="0.27"></path>
                    <path d="M28.2676364,27.6489091 L28.2676364,49.8709091" id="Shape" stroke="#A5A4A4" stroke-width="2" fill="#FFFFFF" opacity="0.27"></path>
                    <path d="M23.9775455,155.8 C23.9775455,155.8 43.4637273,107.565364 39.9563636,100.051182 C36.449,92.537 34.112,77.0054545 34.112,64.8172727 C34.112,52.6290909 29.7697273,41.6038182 21.5883636,42.2747273 C13.407,42.9456364 14.9090909,59.7929091 15.252,63.4829091 C15.5949091,67.1729091 16.5789091,95.0454545 14.2009091,104.736364 C11.8229091,114.427273 12.4490909,129.116455 14.2009091,135.754727 C15.8185455,141.889818 22.1325455,151.431636 23.9775455,155.8 Z" id="Shape" fill="url(#linearGradient-2)"></path>
                </g>
            </g>
        </g>
    </g>
</svg>