<?xml version="1.0" encoding="UTF-8"?>
<svg width="150px" height="150px" viewBox="0 0 150 150" version="1.1" xmlns="http://www.w3.org/2000/svg" xmlns:xlink="http://www.w3.org/1999/xlink">
    <!-- Generator: Sketch 51.2 (57519) - http://www.bohemiancoding.com/sketch -->
    <title>Artboard 4</title>
    <desc>Created with Sketch.</desc>
    <defs></defs>
    <g id="Artboard-4" stroke="none" stroke-width="1" fill="none" fill-rule="evenodd">
        <g id="Group-8-Copy" transform="translate(9.000000, 12.000000)" fill-rule="nonzero">
            <path d="M97.4437398,80.055659 C65.9259759,83.6990325 53.9834602,46.706647 27.7684048,51.0604783 C1.67518072,55.3960928 0.0121831325,79.8218759 0,80.0495867 C8.91196145,106.734261 34.1675952,125.977346 63.930988,125.977346 C101.138275,125.977346 131.300665,95.9195144 131.300665,58.8208638 C131.300665,58.8208638 128.964549,76.421394 97.4437398,80.055659 Z" id="Shape" fill="#ACDAE9" opacity="0.5"></path>
            <path d="M116.933706,17.3060241 C116.933706,17.3060241 83.5580145,25.956 75.3496289,60.6075181 C67.1412434,95.2590361 48.8513157,114.259229 20.7113253,110.263663 C32.8156415,120.375834 48.1105318,125.907404 63.9035759,125.884627 C101.110863,125.884627 131.273253,95.8267952 131.273253,58.7281446 C131.296296,43.7071942 126.2451,29.1159902 116.933706,17.3060241 Z" id="Shape" fill="#C7E9F5" opacity="0.5"></path>
            <path d="M63.6427053,125.597376 C80.9078162,125.621145 97.5707098,119.273636 110.419843,107.778243 C111.651002,106.676462 111.851886,104.827112 110.885847,103.488171 C109.030966,100.919592 106.996382,99.0584358 104.903929,98.0990141 C94.1462233,93.1652792 79.08178,79.7607008 79.08178,79.7607008 C79.08178,79.7607008 78.1254041,77.832749 65.5036788,78.0452792 C52.6017414,78.2638816 51.5387631,79.7607008 51.5387631,79.7607008 C51.5387631,79.7607008 40.9942619,92.0935201 30.4528065,96.3835924 C26.6943101,97.9016647 22.8383486,101.3234 19.6524595,106.545568 C18.8071534,107.946173 19.1445327,109.755477 20.4382715,110.759737 C32.763401,120.394719 47.9796433,125.620412 63.6427053,125.597376 Z" id="Shape" fill="#226395"></path>
            <path d="M65.1232398,125.638699 C64.6298229,117.899566 64.0937651,110.606747 63.7983241,105.175084 C63.1526181,93.2703614 47.7683675,83.1903614 47.7683675,83.1903614 C47.7683675,83.1903614 35.3963964,90.4771084 28.0804253,96.5949398 C28.0121152,96.8867129 28.0027965,97.1891277 28.0530133,97.4845301 C28.3271337,97.3205783 28.6286663,97.1444819 28.6347578,97.1444819 C34.1719916,102.816 37.1324928,112.267518 38.7071627,121.193783 C45.7259831,123.824188 53.1228127,125.314658 60.6154807,125.608337 C62.1261892,125.666024 63.6277602,125.672096 65.1232398,125.638699 Z" id="Shape" fill="#010101"></path>
            <path d="M105.441966,98.343759 C105.493364,98.0648404 105.48506,97.7782437 105.4176,97.502747 C97.8884241,91.3879518 85.1448675,84.1012048 85.1448675,84.1012048 C85.1448675,84.1012048 69.3067952,94.1812048 68.6397687,106.085928 C68.3351904,111.390072 67.8113157,118.066554 67.3118072,125.444386 C77.0738147,124.942802 86.6208546,122.400154 95.333012,117.981542 C97.102612,110.369928 100.026564,102.852434 104.857176,98.0522892 C105.057808,98.1376365 105.253092,98.2349699 105.441966,98.343759 Z" id="Shape" fill="#010101"></path>
            <path d="M43.2894228,32.6684422 C43.2894228,32.6684422 29.6382228,2.86564705 43.076218,1.50849042 C56.5142131,0.151333792 83.6582324,-6.03632886 85.7902806,22.4214543 C87.9223288,50.8792374 77.4082854,61.9824181 76.698618,65.5347073 C75.9889505,69.0869964 75.995042,80.0262254 75.995042,80.0262254 C75.995042,80.0262254 75.0508493,84.0794784 64.8231095,84.0794784 C54.5953698,84.0794784 53.693818,80.0262254 53.693818,80.0262254 L52.6887095,61.2415989 L43.2894228,32.6684422 Z" id="Shape" fill="#010101"></path>
            <path d="M77.0556119,27.7698856 C77.0556119,27.7698856 77.6799974,59.2789941 73.9763251,65.3907531 C70.7325661,70.743476 62.9018576,74.9333555 60.8794576,74.9333555 C57.1148697,74.9333555 48.3917468,67.8955724 46.3784842,60.4145121 C44.133742,52.1228013 39.4219155,25.7356687 43.8870335,22.8088254 C48.3521516,19.881982 62.0581757,15.5372591 63.6358914,22.8088254 C65.213607,30.0803916 76.1022817,27.441982 77.0556119,27.7698856 Z" id="Shape" fill="#96C1D1"></path>
            <path d="M78.0421012,42.4088675 C77.6872524,42.3849401 77.3325327,42.4573383 77.0156723,42.6183614 C77.2471518,34.6879518 77.1100916,27.8384096 77.1100916,27.8384096 C76.4004241,27.5955181 70.1778892,28.9951807 66.3980723,26.7180723 L68.3595566,71.3099277 C70.5433831,69.7038072 72.6845687,67.6847711 74.0308048,65.4592771 C75.5536964,62.9240964 76.3577831,56.0168675 76.7720096,48.802988 C77.0154847,48.9390531 77.2856574,49.0208842 77.5639133,49.0428434 C78.9375614,49.1430361 80.1619663,47.7403373 80.3051181,45.906506 C80.4482699,44.0726747 79.4187952,42.5090602 78.0421012,42.4088675 Z" id="Shape" fill="#96C1D1"></path>
        </g>
    </g>
</svg>