<?xml version="1.0" encoding="UTF-8"?>
<svg width="113px" height="70px" viewBox="0 0 113 70" version="1.1" xmlns="http://www.w3.org/2000/svg" xmlns:xlink="http://www.w3.org/1999/xlink">
    <!-- Generator: Sketch 51.2 (57519) - http://www.bohemiancoding.com/sketch -->
    <title>Artboard 4 Copy</title>
    <desc>Created with Sketch.</desc>
    <defs></defs>
    <g id="Artboard-4-Copy" stroke="none" stroke-width="1" fill="none" fill-rule="evenodd">
        <g id="Group-3-Copy" fill-rule="nonzero">
            <path d="M0.54607524,38.9560204 L20.1850718,69.0109427 C20.4828442,69.5739536 21.1008241,69.9200034 21.765266,69.8958028 C22.4297078,69.8716022 23.0177941,69.4816247 23.2690212,68.8986179 C28.3524543,59.4793763 47.1611568,27.0014463 75.8994986,1.50370385 C76.249082,1.19857023 76.2936625,0.690743944 76.0020836,0.335134747 C75.7105048,-0.0204744506 75.1799195,-0.105379019 74.7811434,0.139759165 C40.6543624,20.069398 24.1501496,39.2769485 20.2867405,44.1390102 C19.7736969,44.8327741 18.7796116,45.0294807 18.0161403,44.5883096 L2.91834402,36.5651056 C2.22114751,35.9447527 1.12490785,35.9770818 0.46982401,36.6373146 C-0.185259828,37.2975474 -0.151120992,38.3356673 0.54607524,38.9560204 Z" id="Shape" fill-opacity="0.5" fill="#E5B7C6"></path>
            <g id="XXX-Gemente" transform="translate(20.000000, 21.000000)" fill="#FF001F">
                <path d="M2.57380074,25.1481563 L0,22.5483263 L1.71586716,20.8151062 C1.71586716,20.8151062 3.00276753,23.4149363 4.2896679,23.4149363 C5.57656827,23.4149363 6.00553506,20.9884282 6.86346863,20.8151062 C7.72140221,20.6417842 8.57933579,22.5483263 8.57933579,22.5483263 L6.00553506,25.1481563 L8.57933579,27.7479864 L6.86346863,29.4812065 L4.2896679,26.8813764 L1.71586716,29.4812065 L0,27.7479864 L2.57380074,25.1481563 Z" id="Shape"></path>
                <polygon id="Shape" points="0 6.9328802 2.57380074 4.33305013 0 1.73322005 1.71586716 0 4.2896679 2.59983008 6.86346863 0 8.57933579 1.73322005 6.00553506 4.33305013 8.57933579 6.9328802 6.86346863 8.66610025 4.2896679 6.06627018 1.71672509 8.66610025"></polygon>
                <polygon id="Shape" points="0 17.3495327 2.57380074 14.7497026 0 12.1498726 1.71586716 10.4166525 4.2896679 13.0164826 6.86346863 10.4166525 8.57933579 12.1498726 6.00553506 14.7497026 8.57933579 17.3495327 6.86346863 19.0827528 4.2896679 16.4829227 1.71586716 19.0827528"></polygon>
                <path d="M24.8938007,11.3534579 C23.6309225,12.03548 22.19131,12.39339 20.5912638,12.39339 C17.3894557,12.39339 15.1004889,10.1982668 15.1004889,6.91901444 C15.1004889,3.55136788 17.3911716,1.35624469 20.5912638,1.35624469 C22.177583,1.35624469 23.6017528,1.69768904 24.6887546,2.67609176 L23.3220664,4.06960068 C22.6614576,3.41704333 21.648238,3.04613424 20.6049908,3.04613424 C18.4601568,3.04613424 17.0359871,4.70742566 17.0359871,6.79942226 C17.0359871,9.03960918 18.4601568,10.6991674 20.6049908,10.6991674 C21.5487177,10.6991674 22.3963561,10.5215123 23.043238,10.1506032 L23.043238,7.67469839 L20.9138469,7.67469839 L20.9138469,5.98394223 L24.8938007,5.98394223 L24.8938007,11.3534579 Z" id="Shape"></path>
                <path d="M28.3306827,9.18779949 C28.4482196,10.2407307 29.2409502,10.8785556 30.225,10.8785556 C31.1060978,10.8785556 31.6791974,10.4634494 32.1201753,9.91401869 L33.3830535,10.8785556 C32.5602952,11.9020221 31.517048,12.3023959 30.4008764,12.3023959 C28.2714852,12.3023959 26.5676292,10.8040272 26.5676292,8.56384027 C26.5676292,6.32365336 28.2714852,4.82528462 30.4008764,4.82528462 C32.3698339,4.82528462 33.7030627,6.22052676 33.7030627,8.69816483 L33.7030627,9.18779949 L28.3306827,9.18779949 Z M31.943441,7.85235344 C31.9288561,6.81242141 31.2570941,6.16159728 30.1512177,6.16159728 C29.1088284,6.16159728 28.4619465,6.828887 28.3306827,7.85235344 L31.943441,7.85235344 Z" id="Shape"></path>
                <path d="M35.2773708,5.0046729 L36.9520572,5.0046729 L36.9520572,6.11740017 L36.9812269,6.11740017 C37.2892251,5.44924384 37.9652768,4.82528462 39.1397878,4.82528462 C40.2233579,4.82528462 40.9757657,5.25858963 41.3386716,6.14686491 C41.8534317,5.24212404 42.6015498,4.82701784 43.6550923,4.82701784 C45.5348247,4.82701784 46.1954336,6.17719626 46.1954336,7.88268479 L46.1954336,12.1290739 L44.4409594,12.1290739 L44.4409594,8.08980459 C44.4409594,7.19979609 44.1767159,6.42851317 43.1343266,6.42851317 C42.0327399,6.42851317 41.6217897,7.34798641 41.6217897,8.26832625 L41.6217897,12.1256075 L39.8595941,12.1256075 L39.8595941,7.87921835 C39.8595941,7.00394223 39.5069834,6.42504673 38.6584871,6.42504673 C37.497703,6.42504673 37.0429982,7.28559048 37.0429982,8.23452846 L37.0429982,12.1212744 L35.2773708,12.1212744 L35.2773708,5.0046729 Z" id="Shape"></path>
                <path d="M49.5379428,9.18779949 C49.6554797,10.2407307 50.4482103,10.8785556 51.4322601,10.8785556 C52.3133579,10.8785556 52.8864576,10.4634494 53.3265775,9.91401869 L54.5894557,10.8785556 C53.7666974,11.9020221 52.7243081,12.3023959 51.6081365,12.3023959 C49.4787454,12.3032625 47.7731734,10.8048938 47.7731734,8.56470688 C47.7731734,6.32451997 49.4787454,4.82528462 51.6081365,4.82528462 C53.5762362,4.82528462 54.9128967,6.21966015 54.9128967,8.69729822 L54.9128967,9.18693288 L49.5379428,9.18779949 Z M53.1507011,7.85235344 C53.1361162,6.81242141 52.4643542,6.16159728 51.3593358,6.16159728 C50.3169465,6.16159728 49.6700646,6.828887 49.5388007,7.85235344 L53.1507011,7.85235344 Z" id="Shape"></path>
                <path d="M57.9671402,9.18779949 C58.0846771,10.2407307 58.8774077,10.8785556 59.8614576,10.8785556 C60.7425554,10.8785556 61.315655,10.4634494 61.7557749,9.91401869 L63.0186531,10.8785556 C62.1967528,11.9028887 61.1569373,12.3032625 60.0416236,12.3032625 C57.9122325,12.3032625 56.2083764,10.8048938 56.2083764,8.56470688 C56.2083764,6.32451997 57.9088007,4.82528462 60.0416236,4.82528462 C62.0097232,4.82528462 63.3463838,6.21966015 63.3463838,8.69729822 L63.3463838,9.18693288 L57.9671402,9.18779949 Z M61.5798985,7.85235344 C61.5653137,6.81242141 60.8935517,6.16159728 59.7885332,6.16159728 C58.7461439,6.16159728 58.1001199,6.828887 57.9679982,7.85235344 L61.5798985,7.85235344 Z" id="Shape"></path>
                <path d="M64.9867528,5.0046729 L66.6614391,5.0046729 L66.6614391,6.14686491 L66.6906089,6.14686491 C67.0140498,5.43191164 67.6772325,4.82528462 68.8491697,4.82528462 C70.7434871,4.82528462 71.4229705,6.17546304 71.4229705,7.62876805 L71.4229705,12.1238743 L69.6573432,12.1238743 L69.6573432,8.51877655 C69.6573432,7.73276126 69.5990037,6.42677995 68.3652952,6.42677995 C67.205369,6.42677995 66.7498063,7.2873237 66.7498063,8.23626168 L66.7498063,12.1230076 L64.9867528,12.1230076 L64.9867528,5.0046729 Z" id="Shape"></path>
                <path d="M72.5940498,6.517774 L72.5940498,5.0046729 L74.0482472,5.0046729 L74.0482472,2.94214104 L75.8104428,2.94214104 L75.8104428,5.0046729 L77.7493727,5.0046729 L77.7493727,6.517774 L75.8104428,6.517774 L75.8104428,9.63323704 C75.8104428,10.3455905 76.0163469,10.7901614 76.7944926,10.7901614 C77.1024908,10.7901614 77.5288838,10.7312319 77.7493727,10.5674427 L77.7493727,12.0658114 C77.3821771,12.2434664 76.7653229,12.3032625 76.3543727,12.3032625 C74.4892251,12.3032625 74.0491052,11.4574511 74.0491052,9.78142736 L74.0491052,6.517774 L72.5940498,6.517774 Z" id="Shape"></path>
                <path d="M80.5393727,9.18779949 C80.6569096,10.2407307 81.4496402,10.8785556 82.43369,10.8785556 C83.3147878,10.8785556 83.8878875,10.4634494 84.3280074,9.91401869 L85.5908856,10.8785556 C84.7681273,11.9020221 83.725738,12.3023959 82.6095664,12.3023959 C80.4801753,12.3023959 78.7763192,10.8040272 78.7763192,8.56384027 C78.7763192,6.32365336 80.4801753,4.82528462 82.6104244,4.82528462 C84.578524,4.82528462 85.9151845,6.21966015 85.9151845,8.69729822 L85.9151845,9.18693288 L80.5393727,9.18779949 Z M84.1495572,7.85235344 C84.1349723,6.81242141 83.4632103,6.16159728 82.3581919,6.16159728 C81.3158026,6.16159728 80.6689207,6.828887 80.5376568,7.85235344 L84.1495572,7.85235344 Z" id="Shape"></path>
                <path d="M19.0195295,17.2420731 L20.6204336,17.2420731 L25.0997048,27.74452 L22.9848985,27.74452 L22.0154336,25.3414104 L17.5069926,25.3414104 L16.5632657,27.74452 L14.4965037,27.74452 L19.0195295,17.2420731 Z M21.3694096,23.7416483 L19.7685055,19.4709941 L18.1384317,23.7433815 L21.3694096,23.7416483 Z" id="Shape"></path>
                <path d="M26.0245572,20.624452 L27.6975277,20.624452 L27.6975277,21.7371793 L27.7266974,21.7371793 C28.0346956,21.0698895 28.7107472,20.4467969 29.8852583,20.4467969 C30.9722601,20.4467969 31.7212362,20.880102 32.0884317,21.7675106 C32.6031919,20.8627698 33.35131,20.4467969 34.4091421,20.4467969 C36.2888745,20.4467969 36.9494834,21.7969754 36.9494834,23.5024639 L36.9494834,27.748853 L35.1890037,27.748853 L35.1890037,23.7095837 C35.1890037,22.8195752 34.9247601,22.0482923 33.8823708,22.0482923 C32.7807841,22.0482923 32.3698339,22.9677655 32.3698339,23.8881054 L32.3698339,27.7453866 L30.6067804,27.7453866 L30.6067804,23.4989975 C30.6067804,22.6237213 30.2541697,22.0448258 29.4056734,22.0448258 C28.2457472,22.0448258 27.7901845,22.9053696 27.7901845,23.8551742 L27.7901845,27.7419201 L26.0245572,27.7419201 L26.0245572,20.624452 Z" id="Shape"></path>
                <path d="M42.6350092,22.5968564 C42.2969834,22.1228207 41.8568635,21.8697706 41.2545941,21.8697706 C40.7844465,21.8697706 40.2250738,22.0924894 40.2250738,22.6263212 C40.2250738,23.9019711 44.0291513,22.8637723 44.0291513,25.637791 C44.0291513,27.3285472 42.4282472,27.922175 40.9894926,27.922175 C39.9024908,27.922175 38.9630535,27.6405268 38.2441052,26.8241801 L39.4186162,25.7105862 C39.873321,26.2149533 40.3434686,26.5858624 41.0924446,26.5858624 C41.6072048,26.5858624 42.2678137,26.3336788 42.2678137,25.7703823 C42.2678137,24.3014783 38.4637362,25.4592693 38.4637362,22.7441801 C38.4637362,21.1565506 39.873321,20.4441971 41.294917,20.4441971 C42.2386439,20.4441971 43.2338469,20.7414444 43.8060886,21.5274596 L42.6350092,22.5968564 Z" id="Shape"></path>
                <path d="M44.5730812,22.1366865 L44.5730812,20.624452 L46.0272786,20.624452 L46.0272786,18.5619201 L47.7894742,18.5619201 L47.7894742,20.6235854 L49.7284041,20.6235854 L49.7284041,22.1366865 L47.7894742,22.1366865 L47.7894742,25.2564826 C47.7894742,25.9679694 47.9953782,26.413407 48.773524,26.413407 C49.0815221,26.413407 49.5079151,26.3536109 49.7275461,26.1906882 L49.7275461,27.6890569 C49.3603506,27.866712 48.7434963,27.9265081 48.3325461,27.9265081 C46.4673985,27.9265081 46.0272786,27.0806967 46.0272786,25.4046729 L46.0272786,22.1366865 L44.5730812,22.1366865 Z" id="Shape"></path>
                <path d="M52.5184041,24.8075786 C52.635941,25.8605098 53.4286716,26.4983347 54.4127214,26.4983347 C55.2938192,26.4983347 55.8669188,26.0832285 56.3070387,25.5337978 L57.569917,26.4983347 C56.7471587,27.5218012 55.7047694,27.922175 54.5885978,27.922175 C52.4592066,27.922175 50.7553506,26.4238063 50.7553506,24.1836194 C50.7553506,21.9434325 52.4592066,20.4450637 54.5885978,20.4450637 C56.5566974,20.4450637 57.8933579,21.8394393 57.8933579,24.3170773 L57.8933579,24.806712 L52.5184041,24.8075786 Z M56.1311624,23.4721325 C56.1165775,22.4322005 55.4448155,21.7813764 54.339797,21.7813764 C53.2965498,21.7813764 52.6505258,22.4486661 52.5184041,23.4721325 L56.1311624,23.4721325 Z" id="Shape"></path>
                <path d="M59.5380166,20.624452 L61.3002122,20.624452 L61.3002122,21.751045 L61.328524,21.751045 C61.7103044,20.9346984 62.4884502,20.4450637 63.4141605,20.4450637 C63.6284365,20.4495373 63.8410141,20.4845472 64.0455996,20.5490569 L64.0455996,22.2701444 C63.7681059,22.1905848 63.4819867,22.1457631 63.1936716,22.1366865 C61.534428,22.1366865 61.2993542,23.5457944 61.2993542,23.9314359 L61.2993542,27.74452 L59.5380166,27.74452 L59.5380166,20.624452 Z" id="Shape"></path>
                <path d="M70.5821956,26.6759898 L70.5530258,26.6759898 C70.0382657,27.5365336 69.1134133,27.922175 68.1293635,27.922175 C65.9553598,27.922175 64.6487269,26.2903483 64.6487269,24.1836194 C64.6487269,22.0768904 66.0437269,20.4450637 68.0555812,20.4450637 C69.3776568,20.4450637 70.0820203,21.0681563 70.4492159,21.5283263 L70.4929705,21.5283263 L70.4929705,16.5297196 L72.2551661,16.5297196 L72.2551661,27.74452 L70.5821956,27.74452 L70.5821956,26.6759898 Z M68.4819742,26.3172133 C69.7740221,26.3172133 70.5530258,25.2937468 70.5530258,24.1810195 C70.5530258,23.0682923 69.7748801,22.0448258 68.4819742,22.0448258 C67.1890683,22.0448258 66.4109225,23.0682923 66.4109225,24.1810195 C66.4109225,25.2937468 67.1890683,26.3172133 68.4819742,26.3172133 Z" id="Shape"></path>
                <path d="M78.6587823,26.7652506 L78.6150277,26.7652506 C78.1157103,27.5668649 77.292952,27.922175 76.3526568,27.922175 C75.046024,27.922175 73.7788561,27.1959558 73.7788561,25.7859813 C73.7788561,23.4712659 76.4513192,23.3083432 78.2143727,23.3083432 L78.6587823,23.3083432 L78.6587823,23.1159558 C78.6587823,22.2406797 77.9835886,21.7805098 77.0432934,21.7805098 C76.3467135,21.7805081 75.6756505,22.0453367 75.1635609,22.522328 L74.2387085,21.5872557 C75.0168542,20.7865081 76.118441,20.4450637 77.2346125,20.4450637 C80.2451015,20.4450637 80.2451015,22.6410535 80.2451015,23.6515208 L80.2451015,27.7453866 L78.6587823,27.7453866 L78.6587823,26.7652506 Z M78.5558303,24.5553951 L78.1886347,24.5553951 C77.2191697,24.5553951 75.5453413,24.6299235 75.5453413,25.6525234 C75.5453413,26.3050807 76.2059502,26.5875956 76.7790498,26.5875956 C77.9801568,26.5875956 78.5558303,25.9497706 78.5558303,24.9557689 L78.5558303,24.5553951 Z" id="Shape"></path>
                <path d="M82.0664945,20.624452 L83.7403229,20.624452 L83.7403229,21.7371793 L83.7694926,21.7371793 C84.0783487,21.0698895 84.7535424,20.4467969 85.9280535,20.4467969 C87.0150554,20.4467969 87.7640314,20.880102 88.1312269,21.7675106 C88.6459871,20.8627698 89.3941052,20.4467969 90.4476476,20.4467969 C92.3273801,20.4467969 92.9879889,21.7969754 92.9879889,23.5024639 L92.9879889,27.748853 L91.2257934,27.748853 L91.2257934,23.7095837 C91.2257934,22.8195752 90.9615498,22.0482923 89.9183026,22.0482923 C88.8167159,22.0482923 88.4057657,22.9677655 88.4057657,23.8881054 L88.4057657,27.7453866 L86.6435701,27.7453866 L86.6435701,23.4989975 C86.6435701,22.6237213 86.2909594,22.0448258 85.4424631,22.0448258 C84.2825369,22.0448258 83.8269742,22.9053696 83.8269742,23.8551742 L83.8269742,27.7419201 L82.0664945,27.7419201 L82.0664945,20.624452 Z" id="Shape"></path>
            </g>
        </g>
    </g>
</svg>