<?xml version="1.0" encoding="utf-8"?>
<!-- Generator: Adobe Illustrator 16.0.0, SVG Export Plug-In . SVG Version: 6.00 Build 0)  -->
<!DOCTYPE svg PUBLIC "-//W3C//DTD SVG 1.0//EN" "http://www.w3.org/TR/2001/REC-SVG-20010904/DTD/svg10.dtd">
<svg version="1.0" id="Layer_1" xmlns="http://www.w3.org/2000/svg" xmlns:xlink="http://www.w3.org/1999/xlink" x="0px" y="0px"
	 width="40.333px" height="38.003px" viewBox="0 0 40.333 38.003" enable-background="new 0 0 40.333 38.003" xml:space="preserve">
<g>
	<defs>
		<path id="SVGID_1_" d="M36.036,5.078C22.014,13.268,15.23,21.16,13.644,23.158c-0.211,0.285-0.62,0.365-0.933,0.186l-6.203-3.297
			c-0.288-0.256-0.737-0.242-1.007,0.029c-0.27,0.271-0.256,0.697,0.031,0.953l8.069,12.348c0.123,0.232,0.377,0.375,0.649,0.365
			c0.273-0.011,0.515-0.17,0.618-0.41c2.089-3.869,9.817-17.215,21.626-27.692c0.145-0.126,0.162-0.334,0.043-0.481
			c-0.074-0.09-0.186-0.138-0.298-0.138C36.171,5.021,36.1,5.039,36.036,5.078"/>
	</defs>
	<clipPath id="SVGID_2_">
		<use xlink:href="#SVGID_1_"  overflow="visible"/>
	</clipPath>
	<rect x="3.253" y="2.966" clip-path="url(#SVGID_2_)" fill="#FFFFFF" width="35.418" height="32.831"/>
</g>
</svg>
