<?xml version="1.0" encoding="UTF-8"?>
<svg width="150px" height="150px" viewBox="0 0 150 150" version="1.1" xmlns="http://www.w3.org/2000/svg" xmlns:xlink="http://www.w3.org/1999/xlink">
    <!-- Generator: Sketch 51.2 (57519) - http://www.bohemiancoding.com/sketch -->
    <title>Artboard 3</title>
    <desc>Created with Sketch.</desc>
    <defs></defs>
    <g id="Artboard-3" stroke="none" stroke-width="1" fill="none" fill-rule="evenodd">
        <g id="Group" transform="translate(6.000000, 25.000000)">
            <g id="Group-7-Copy">
                <path d="M103.071675,51.4260563 C69.8351523,55.2640845 57.2404822,16.2147887 29.5957107,20.8133803 C2.07794416,25.3908451 0.313984772,51.1795775 0.313984772,51.4190141 C9.98945304,80.381496 37.1471661,99.9159561 67.7360406,99.915493 C106.973553,99.915493 138.777741,68.1690141 138.777741,29.0105634 C138.770685,29.0070423 136.308198,47.584507 103.071675,51.4260563 Z" id="Shape" fill="#EAA4C1" fill-rule="nonzero" opacity="0.5"></path>
                <path d="M124.937716,49.4471831 L124.937716,42.5915493 L51.4017766,42.5915493 L51.4017766,49.4471831 C51.4095276,52.147056 53.6005029,54.3338132 56.3055838,54.3415493 L120.037437,54.3415493 C122.74114,54.3318813 124.929975,52.1456871 124.937716,49.4471831 Z" id="Shape" fill="#D894AF" fill-rule="nonzero"></path>
                <path d="M124.937716,42.5915493 L124.937716,13.5669014 C124.929965,10.8670285 122.738989,8.68027128 120.033909,8.67253521 L56.3020558,8.67253521 C53.596975,8.68027128 51.4059997,10.8670285 51.3982487,13.5669014 L51.3982487,42.5950704 L124.937716,42.5915493 Z" id="Shape" fill="#40403F" fill-rule="nonzero"></path>
                <rect id="Rectangle-path" fill="#F7E8EC" fill-rule="nonzero" x="57.4909645" y="14.8380282" width="13.727132" height="17.7147887" rx="1.89788732"></rect>
                <path d="M61.6539086,19.6795775 C61.8761675,22.4471831 62.3594924,23.0774648 62.9945178,23.8556338 C63.1215228,25.5035211 61.5304315,25.3309859 59.5583249,26.6478873 C57.6638325,27.9119718 58.683401,32.1338028 58.7680711,32.471831 L58.859797,32.4964789 L69.4435533,32.556338 C69.5453993,32.5542989 69.646892,32.543698 69.7469543,32.5246479 C69.845736,32.1338028 70.8511929,27.9049296 68.9708122,26.6478873 C66.9987056,25.3309859 65.4076142,25.5035211 65.5346193,23.8556338 C66.1731726,23.0774648 66.6494416,22.4471831 66.8752284,19.6795775 C66.9281472,16.2816901 64.4056853,16.2746479 64.2822081,16.2746479 C64.158731,16.2746479 61.6009898,16.2816901 61.6539086,19.6795775 Z" id="Shape" fill="#D8809E" fill-rule="nonzero"></path>
                <path d="M81.4278934,23.7570423 L113.461396,23.7570423" id="Shape" stroke="#EAA4C1" stroke-width="1.05633803"></path>
                <path d="M81.4278934,27.3380282 L101.332411,27.3380282" id="Shape" stroke="#EAA4C1" stroke-width="1.05633803"></path>
                <path d="M81.4278934,30.6338028 L105.784645,30.6338028" id="Shape" stroke="#EAA4C1" stroke-width="1.05633803"></path>
                <ellipse id="Oval" fill="#F7B2CA" fill-rule="nonzero" opacity="0.43" cx="69.542335" cy="30.9507042" rx="30.6999492" ry="30.6408451"></ellipse>
                <path d="M47.8350508,52.6161972 L14.8384264,85.5457746" id="Shape" stroke="#C9203E" stroke-width="4.92957746"></path>
                <ellipse id="Oval" stroke="#C71F3C" stroke-width="5.63380282" cx="69.542335" cy="30.9507042" rx="30.6999492" ry="30.6408451"></ellipse>
                <path d="M32.2451777,68.1760563 L14.8384264,85.5457746" id="Shape" stroke="#C71F3C" stroke-width="10.5633803" stroke-linecap="round"></path>
            </g>
        </g>
    </g>
</svg>