<?xml version="1.0" encoding="UTF-8"?>
<svg width="77px" height="71px" viewBox="0 0 77 71" version="1.1" xmlns="http://www.w3.org/2000/svg" xmlns:xlink="http://www.w3.org/1999/xlink">
    <!-- Generator: Sketch 51.2 (57519) - http://www.bohemiancoding.com/sketch -->
    <title>Artboard 4 Copy 2</title>
    <desc>Created with Sketch.</desc>
    <defs></defs>
    <g id="Artboard-4-Copy-2" stroke="none" stroke-width="1" fill="none" fill-rule="evenodd">
        <g id="Group-Copy" fill="#FFFFFF" fill-rule="nonzero">
            <path d="M0.937052684,39.3244414 L20.5760492,69.3793638 C20.8738216,69.9423747 21.4918016,70.2884244 22.1562434,70.2642239 C22.8206853,70.2400233 23.4087716,69.8500457 23.6599987,69.2670389 C28.7434318,59.8477974 47.5521343,27.3698674 76.2904761,1.87212491 C76.6400594,1.56699128 76.6846399,1.059165 76.3930611,0.703555799 C76.1014822,0.347946602 75.5708969,0.263042034 75.1721208,0.508180217 C41.0453399,20.4378191 24.5411271,39.6453696 20.6777179,44.5074312 C20.1646743,45.2011952 19.170589,45.3979017 18.4071178,44.9567307 L3.30932147,36.9335266 C2.61212496,36.3131738 1.51588529,36.3455029 0.860801453,37.0057357 C0.205717615,37.6659685 0.239856451,38.7040883 0.937052684,39.3244414 Z" id="Shape"></path>
        </g>
    </g>
</svg>